<svg xmlns="http://www.w3.org/2000/svg" width="9.399" height="9.258" viewBox="0 0 9.399 9.258">
    <defs>
        <style>
            .cls-1{fill:#fff}
        </style>
    </defs>
    <g id="Group_119" data-name="Group 119" transform="translate(-323 -4295)">
        <path id="Path" d="M5.4 4.629a.293.293 0 0 0-.093-.213L.983.093a.292.292 0 0 0-.427 0L.093.557a.292.292 0 0 0 0 .427l3.645 3.645L.093 8.275a.292.292 0 0 0 0 .427l.464.464a.292.292 0 0 0 .427 0l4.322-4.324a.292.292 0 0 0 .094-.213z" class="cls-1" transform="translate(323 4295)"/>
        <path id="Path-2" d="M5.4 4.629a.293.293 0 0 0-.093-.213L.983.093a.292.292 0 0 0-.427 0L.093.557a.292.292 0 0 0 0 .427l3.645 3.645L.093 8.275a.292.292 0 0 0 0 .427l.464.464a.292.292 0 0 0 .427 0l4.322-4.324a.292.292 0 0 0 .094-.213z" class="cls-1" data-name="Path" transform="translate(327 4295)"/>
    </g>
</svg>
