<svg xmlns="http://www.w3.org/2000/svg" width="7.053" height="7.067" viewBox="0 0 7.053 7.067">
    <defs>
        <style>
            .cls-1{fill:#d6b571}
        </style>
    </defs>
    <g id="Group_28" data-name="Group 28" transform="translate(-57.759 -1901.484)">
        <g id="Group_15" data-name="Group 15" transform="translate(60.575 1901.484)">
            <path id="Path_298" d="M6777.06 1055.167a.711.711 0 0 1-.5-1.214l2.314-2.32-2.314-2.319a.711.711 0 1 1 1.007-1l2.815 2.821a.711.711 0 0 1 0 1l-2.815 2.823a.705.705 0 0 1-.507.209z" class="cls-1" data-name="Path 298" transform="translate(-6776.348 -1048.101)"/>
        </g>
        <g id="Group_16" data-name="Group 16" transform="translate(57.76 1904.305)">
            <path id="Path_299" d="M6778.731 1053.49h-5.63a.711.711 0 1 1 0-1.423h5.63a.711.711 0 0 1 0 1.423z" class="cls-1" data-name="Path 299" transform="translate(-6772.39 -1052.067)"/>
        </g>
    </g>
</svg>
