<svg xmlns="http://www.w3.org/2000/svg" width="18.113" height="31" viewBox="0 0 18.113 31">
    <defs>
        <style>
            .cls-1{isolation:isolate}.cls-2{fill:#fff;stroke:#fff}
        </style>
    </defs>
    <g id="Group_9" class="cls-1" data-name="Group 9" transform="translate(.5 .5)">
        <g id="Group_8" data-name="Group 8">
            <path id="Path_294" d="M6742.889 862.29h-5.7a.719.719 0 0 1-.72-.72v-10.7h-3.554a.719.719 0 0 1-.72-.72v-5.712a.719.719 0 0 1 .72-.72h3.554v-3.568a7.86 7.86 0 0 1 7.841-7.86h4.274a.72.72 0 0 1 .72.72v5.712a.72.72 0 0 1-.72.72h-4.274a.707.707 0 0 0-.7.708v3.564h4.978a.721.721 0 0 1 .7.894l-1.423 5.713a.723.723 0 0 1-.7.544h-3.552v10.7a.72.72 0 0 1-.724.725zm-4.978-1.44h4.258v-10.7a.719.719 0 0 1 .72-.72h3.711l1.064-4.272h-4.775a.719.719 0 0 1-.72-.72v-4.288a2.148 2.148 0 0 1 2.143-2.148h3.555v-4.272h-3.555a6.417 6.417 0 0 0-6.4 6.42v4.284a.72.72 0 0 1-.721.72h-3.554v4.272h3.554a.72.72 0 0 1 .721.72z" class="cls-2" data-name="Path 294" transform="translate(-6732.197 -832.29)"/>
        </g>
    </g>
</svg>
