<svg xmlns="http://www.w3.org/2000/svg" width="30.93" height="31" viewBox="0 0 30.93 31">
    <defs>
        <style>
            .cls-1{isolation:isolate}.cls-2{fill:#fff;stroke:#fff}
        </style>
    </defs>
    <g id="Group_7" class="cls-1" data-name="Group 7" transform="translate(.5 .5)">
        <g id="Group_4" data-name="Group 4">
            <path id="Path_291" d="M6759.53 802.346h-14.247a7.861 7.861 0 0 1-7.842-7.86v-14.28a7.86 7.86 0 0 1 7.842-7.86h14.247a7.859 7.859 0 0 1 7.841 7.86v14.279a7.86 7.86 0 0 1-7.841 7.861zm-14.247-28.56a6.418 6.418 0 0 0-6.4 6.42v14.279a6.418 6.418 0 0 0 6.4 6.421h14.247a6.418 6.418 0 0 0 6.4-6.421v-14.279a6.418 6.418 0 0 0-6.4-6.42z" class="cls-2" data-name="Path 291" transform="translate(-6737.441 -772.346)"/>
        </g>
        <g id="Group_5" data-name="Group 5" transform="translate(10.723 9.222)">
            <path id="Path_292" d="M6748.574 787.478a4.852 4.852 0 0 1-4.786-4.147 4.861 4.861 0 0 1 4.085-5.519 4.724 4.724 0 0 1 1.423 0 4.825 4.825 0 0 1 4.084 4.093 4.857 4.857 0 0 1-4.807 5.574zm.009-8.632a3.9 3.9 0 0 0-.55.04 3.758 3.758 0 1 0 1.1 0 3.956 3.956 0 0 0-.55-.04z" class="cls-2" data-name="Path 292" transform="translate(-6743.735 -777.758)"/>
        </g>
        <g id="Group_6" data-name="Group 6" transform="translate(23.047 3.228)">
            <path id="Path_293" d="M6754.057 778.237a1.013 1.013 0 0 1-.7-.27 1.179 1.179 0 0 1-.194-.328.809.809 0 0 1-.076-.366.967.967 0 0 1 .27-.675 1.221 1.221 0 0 1 .328-.212.967.967 0 0 1 .734 0 1.088 1.088 0 0 1 .308.212 1.075 1.075 0 0 1 .213.309.824.824 0 0 1 .076.367.778.778 0 0 1-.076.366 1.165 1.165 0 0 1-.213.328 1.021 1.021 0 0 1-.308.193.842.842 0 0 1-.362.076z" class="cls-2" data-name="Path 293" transform="translate(-6753.092 -776.313)"/>
        </g>
    </g>
</svg>
