<svg xmlns="http://www.w3.org/2000/svg" id="Group_116" width="56.685" height="56.813" data-name="Group 116" viewBox="0 0 56.685 56.813">
    <defs>
        <style>
            .cls-1{fill:#c5c5c5}
        </style>
    </defs>
    <g id="Group_18" data-name="Group 18">
        <path id="Path_300" d="M6927.627 1098.963a28.407 28.407 0 1 1 28.342-28.408 28.407 28.407 0 0 1-28.342 28.408zm0-51.609a23.2 23.2 0 1 0 23.14 23.2 23.195 23.195 0 0 0-23.14-23.2z" class="cls-1" data-name="Path 300" transform="translate(-6899.284 -1042.15)"/>
    </g>
    <g id="Group_19" data-name="Group 19" transform="translate(15.443 15.483)">
        <path id="Path_301" d="M6918.12 1073.949a2.584 2.584 0 0 1-1.841-.765l-10.3-10.324a2.6 2.6 0 0 1 0-3.674l10.3-10.319a2.6 2.6 0 0 1 3.684 3.674l-8.468 8.482 8.468 8.487a2.6 2.6 0 0 1-1.843 4.439z" class="cls-1" data-name="Path 301" transform="translate(-6905.22 -1048.101)"/>
    </g>
    <g id="Group_20" data-name="Group 20" transform="translate(15.443 25.803)">
        <path id="Path_302" d="M6928.416 1057.271h-20.593a2.6 2.6 0 1 1 0-5.2h20.593a2.6 2.6 0 0 1 0 5.2z" class="cls-1" data-name="Path 302" transform="translate(-6905.22 -1052.067)"/>
    </g>
</svg>
