<svg xmlns="http://www.w3.org/2000/svg" id="Group_115" width="56.683" height="56.813" data-name="Group 115" viewBox="0 0 56.683 56.813">
    <defs>
        <style>
            .cls-1{fill:#d6b571}
        </style>
    </defs>
    <g id="Group_14" data-name="Group 14">
        <path id="Path_297" d="M6794.8 1098.963a28.407 28.407 0 1 1 28.343-28.408 28.4 28.4 0 0 1-28.343 28.408zm0-51.609a23.2 23.2 0 1 0 23.139 23.2 23.2 23.2 0 0 0-23.139-23.2z" class="cls-1" data-name="Path 297" transform="translate(-6766.458 -1042.15)"/>
    </g>
    <g id="Group_15" data-name="Group 15" transform="translate(25.74 15.484)">
        <path id="Path_298" d="M6778.95 1073.949a2.6 2.6 0 0 1-1.843-4.439l8.465-8.487-8.465-8.482a2.6 2.6 0 1 1 3.684-3.674l10.3 10.319a2.6 2.6 0 0 1 0 3.674l-10.3 10.324a2.581 2.581 0 0 1-1.841.765z" class="cls-1" data-name="Path 298" transform="translate(-6776.348 -1048.101)"/>
    </g>
    <g id="Group_16" data-name="Group 16" transform="translate(15.443 25.803)">
        <path id="Path_299" d="M6795.585 1057.271h-20.592a2.6 2.6 0 1 1 0-5.2h20.592a2.6 2.6 0 0 1 0 5.2z" class="cls-1" data-name="Path 299" transform="translate(-6772.39 -1052.067)"/>
    </g>
</svg>
