<svg xmlns="http://www.w3.org/2000/svg" id="Group_122" width="37.712" height="30" data-name="Group 122" viewBox="0 0 37.712 30">
    <defs>
        <style>
            .cls-1{fill:#fff}
        </style>
    </defs>
    <g id="Group_121" data-name="Group 121">
        <path id="Path_332" d="M6556.251 426.039a26 26 0 0 1-12.177-3.117 1.49 1.49 0 0 1-.755-1.734 1.579 1.579 0 0 1 1.589-1.1 17.372 17.372 0 0 0 7.625-1.439c-11.927-7.027-6.062-20.051-6-20.19a1.581 1.581 0 0 1 1.3-.893 1.607 1.607 0 0 1 1.453.638 15.28 15.28 0 0 0 11.244 6.123 8.065 8.065 0 0 1 2.958-6.261 8.867 8.867 0 0 1 6.26-2.005 8.758 8.758 0 0 1 5.142 2.073 15.768 15.768 0 0 0 3.58-1.8 1.652 1.652 0 0 1 1.81-.017 1.485 1.485 0 0 1 .648 1.611 12.918 12.918 0 0 1-3.13 5.668c.022.242.035.485.036.727 0 8.254-3.826 15.13-10.494 18.87a22.581 22.581 0 0 1-11.089 2.846zm-5.136-3.659a20.042 20.042 0 0 0 14.618-1.8c5.672-3.182 8.927-9.106 8.927-16.254a4.95 4.95 0 0 0-.1-.963A1.473 1.473 0 0 1 6575 402a10.17 10.17 0 0 0 .941-1.016c-.34.118-.684.229-1.029.329a1.632 1.632 0 0 1-1.658-.457 5.618 5.618 0 0 0-7.682-.512 5.1 5.1 0 0 0-1.871 4v1.523a1.549 1.549 0 0 1-1.546 1.513 18.639 18.639 0 0 1-13.54-5.228c-.931 3.839-1.277 11.166 7.862 15.052a1.521 1.521 0 0 1 .935 1.248 1.488 1.488 0 0 1-.687 1.387 20.255 20.255 0 0 1-5.61 2.542z" class="cls-1" data-name="Path 332" transform="translate(-6543.26 -396.039)"/>
    </g>
</svg>
