<svg xmlns="http://www.w3.org/2000/svg" id="play" width="37.194" height="30" viewBox="0 0 37.194 30">
    <defs>
        <style>
            .cls-1{fill:#fff}
        </style>
    </defs>
    <g id="Group_123" data-name="Group 123" transform="translate(13.351 6.823)">
        <path id="Path_333" d="M6551.168 449.918a1.312 1.312 0 0 1-1.313-1.314V434.88a1.313 1.313 0 0 1 2.042-1.093l10.294 6.862a1.314 1.314 0 0 1 0 2.186L6551.9 449.7a1.3 1.3 0 0 1-.732.218zm1.313-12.583v8.815l6.612-4.407z" class="cls-1" data-name="Path 333" transform="translate(-6549.854 -433.566)"/>
    </g>
    <g id="Group_124" data-name="Group 124">
        <path id="Path_334" d="M6568.976 458.342h-20.2a8.34 8.34 0 0 1-8.5-8.155V436.5a8.34 8.34 0 0 1 8.5-8.155h20.2a8.34 8.34 0 0 1 8.5 8.155v13.69a8.34 8.34 0 0 1-8.5 8.152zm-20.2-27.379a5.661 5.661 0 0 0-5.767 5.535v13.69a5.661 5.661 0 0 0 5.767 5.535h20.2a5.66 5.66 0 0 0 5.766-5.535V436.5a5.66 5.66 0 0 0-5.766-5.535z" class="cls-1" data-name="Path 334" transform="translate(-6540.277 -428.342)"/>
    </g>
</svg>
